<?xml version="1.0" encoding="UTF-8"?><svg id="Layer_2" xmlns="http://www.w3.org/2000/svg" viewBox="0 0 86.6 100"><defs><style>.cls-1{fill:#3fe7f9;}.cls-2{fill:#0740de;}.cls-3{fill:#39d6f6;}.cls-4{fill:#1261e3;}.cls-5{fill:#2eb5f1;}.cls-6{fill:#2393eb;}.cls-7{fill:#012fdb;}.cls-8{fill:#0c50e0;}.cls-9{fill:#1872e6;}.cls-10{fill:#1d83e9;}.cls-11{fill:#28a4ee;}.cls-12{fill:#fefefe;}.cls-13{fill:#34c6f4;}</style></defs><g id="Layer_1-2"><polygon class="cls-12" points="43.3 0 0 25 0 75 43.3 100 86.6 75 86.6 25 43.3 0"/><polygon class="cls-1" points="43.9 76.23 66.32 62.59 65.71 36.37 42.7 23.77 20.29 37.41 20.89 63.63 43.9 76.23"/><polygon class="cls-3" points="43.79 74.18 64.45 61.61 63.9 37.43 42.68 25.82 22.02 38.39 22.57 62.57 43.79 74.18"/><polygon class="cls-13" points="43.67 72.14 62.59 60.63 62.08 38.49 42.66 27.86 23.74 39.37 24.25 61.51 43.67 72.14"/><polygon class="cls-5" points="43.56 70.09 60.73 59.65 60.27 39.56 42.64 29.91 25.47 40.35 25.93 60.44 43.56 70.09"/><polygon class="cls-11" points="43.45 68.05 58.87 58.67 58.46 40.62 42.62 31.95 27.2 41.33 27.61 59.38 43.45 68.05"/><polygon class="cls-6" points="43.33 66 57.01 57.68 56.64 41.68 42.6 34 28.93 42.32 29.29 58.32 43.33 66"/><polygon class="cls-10" points="43.22 63.96 55.15 56.7 54.83 42.75 42.58 36.04 30.65 43.3 30.97 57.25 43.22 63.96"/><polygon class="cls-9" points="43.11 61.91 53.28 55.72 53.01 43.81 42.56 38.09 32.38 44.28 32.65 56.19 43.11 61.91"/><polygon class="cls-4" points="42.99 59.86 51.42 54.74 51.2 44.87 42.54 40.14 34.11 45.26 34.34 55.13 42.99 59.86"/><polygon class="cls-8" points="42.88 57.82 49.56 53.75 49.38 45.94 42.52 42.18 35.84 46.25 36.02 54.06 42.88 57.82"/><polygon class="cls-2" points="42.76 55.77 47.7 52.77 47.57 47 42.5 44.23 37.57 47.23 37.7 53 42.76 55.77"/><polygon class="cls-7" points="42.65 53.73 45.84 51.79 45.75 48.06 42.48 46.27 39.29 48.21 39.38 51.94 42.65 53.73"/></g></svg>