<?xml version="1.0" encoding="UTF-8"?><svg xmlns="http://www.w3.org/2000/svg" xmlns:xlink="http://www.w3.org/1999/xlink" viewBox="0 0 846.8326 385.7846"><defs><linearGradient id="linear-gradient" x1="-7108.3293" y1="-410.6456" x2="-6949.9865" y2="-410.6456" gradientTransform="translate(833.1839 -6699.3441) rotate(-90)" gradientUnits="userSpaceOnUse"><stop offset="0" stop-color="#d6f9fe"/><stop offset=".1221" stop-color="#d1f8fd"/><stop offset=".2585" stop-color="#c3f6fd"/><stop offset=".4018" stop-color="#adf3fd"/><stop offset=".5499" stop-color="#8eeffd"/><stop offset=".7018" stop-color="#66e9fc"/><stop offset=".8544" stop-color="#35e3fc"/><stop offset="1" stop-color="#00dcfc"/></linearGradient><linearGradient id="linear-gradient-2" x1="-7096.2992" y1="-410.6456" x2="-6951.0691" y2="-410.6456" xlink:href="#linear-gradient"/><linearGradient id="linear-gradient-3" x1="-7080.9257" y1="-410.6456" x2="-6948.8084" y2="-410.6456" xlink:href="#linear-gradient"/><linearGradient id="linear-gradient-4" x1="-7067.3012" y1="-410.6456" x2="-6948.2966" y2="-410.6456" xlink:href="#linear-gradient"/><linearGradient id="linear-gradient-5" x1="-7054.4185" y1="-410.6456" x2="-6948.5267" y2="-410.6456" xlink:href="#linear-gradient"/><linearGradient id="linear-gradient-6" x1="-7032.6805" x2="-6939.9015" xlink:href="#linear-gradient"/><linearGradient id="linear-gradient-7" x1="-7019.5881" y1="-410.6456" x2="-6939.9219" y2="-410.6456" xlink:href="#linear-gradient"/><linearGradient id="linear-gradient-8" x1="-7004.3997" y1="-410.6456" x2="-6937.8462" y2="-410.6456" xlink:href="#linear-gradient"/><linearGradient id="linear-gradient-9" x1="-6990.8637" y1="-410.6456" x2="-6937.3483" y2="-410.6456" xlink:href="#linear-gradient"/><linearGradient id="linear-gradient-10" x1="-6977.8408" y1="-410.6456" x2="-6937.4381" y2="-410.6456" xlink:href="#linear-gradient"/><linearGradient id="linear-gradient-11" x1="-6965.3166" y1="-410.6456" x2="-6937.8146" y2="-410.6456" xlink:href="#linear-gradient"/><linearGradient id="linear-gradient-12" x1="-6944.232" y1="-410.6456" x2="-6929.8428" y2="-410.6456" xlink:href="#linear-gradient"/></defs><g style="isolation:isolate;"><g id="Layer_2"><g id="Components"><g id="fe22324b-d78c-4abb-99c3-df55787ec7f4_x40_1"><polygon points="353.9738 198.1076 353.9738 277.279 422.5383 316.8647 491.1027 277.279 491.1027 198.1076 422.5383 158.5218 353.9738 198.1076" style="fill:#fff;"/><polygon points="353.9738 198.1076 353.9738 277.279 422.5383 316.8647 491.1027 277.279 491.1027 198.1076 422.5383 158.5218 353.9738 198.1076" style="fill:url(#linear-gradient); mix-blend-mode:multiply;"/><polygon points="422.5383 165.0782 359.6518 201.3858 359.6518 274.0008 422.5383 310.3083 485.4248 274.0008 485.4248 201.3858 422.5383 165.0782" style="fill:url(#linear-gradient-2); mix-blend-mode:multiply;"/><polygon points="422.5383 171.6346 365.3298 204.6639 365.3298 270.7226 422.5383 303.7519 479.7468 270.7226 479.7468 204.6639 422.5383 171.6346" style="fill:url(#linear-gradient-3); mix-blend-mode:multiply;"/><polygon points="422.5383 178.191 371.0078 207.9421 371.0078 267.4444 422.5383 297.1955 474.0688 267.4444 474.0688 207.9421 422.5383 178.191" style="fill:url(#linear-gradient-4); mix-blend-mode:multiply;"/><polygon points="422.5383 184.7474 376.6858 211.2203 376.6858 264.1662 422.5383 290.6392 468.3908 264.1662 468.3908 211.2203 422.5383 184.7474" style="fill:url(#linear-gradient-5); mix-blend-mode:multiply;"/><polygon points="422.5383 191.3038 382.3638 214.4985 382.3638 260.888 422.5383 284.0828 462.7128 260.888 462.7128 214.4985 422.5383 191.3038" style="fill:url(#linear-gradient-6); mix-blend-mode:multiply;"/><polygon points="422.5383 197.8601 388.0418 217.7767 388.0418 257.6098 422.5383 277.5264 457.0348 257.6098 457.0348 217.7767 422.5383 197.8601" style="fill:url(#linear-gradient-7); mix-blend-mode:multiply;"/><polygon points="422.5383 204.4165 393.7198 221.0549 393.7198 254.3316 422.5383 270.97 451.3568 254.3316 451.3568 221.0549 422.5383 204.4165" style="fill:url(#linear-gradient-8); mix-blend-mode:multiply;"/><polygon points="422.5383 210.9356 399.3654 224.3144 399.3654 251.0721 422.5383 264.451 445.7111 251.0721 445.7111 224.3144 422.5383 210.9356" style="fill:url(#linear-gradient-9); mix-blend-mode:multiply;"/><polygon points="422.5383 217.4919 405.0434 227.5926 405.0434 247.7939 422.5383 257.8946 440.0332 247.7939 440.0332 227.5926 422.5383 217.4919" style="fill:url(#linear-gradient-10); mix-blend-mode:multiply;"/><polygon points="422.5383 223.9423 410.6296 230.8178 410.6296 244.5688 422.5383 251.4443 434.447 244.5688 434.447 230.8178 422.5383 223.9423" style="fill:url(#linear-gradient-11); mix-blend-mode:multiply;"/><polygon points="422.5383 230.4986 416.3075 234.096 416.3075 241.2906 422.5383 244.8879 428.769 241.2906 428.769 234.096 422.5383 230.4986" style="fill:url(#linear-gradient-12); mix-blend-mode:multiply;"/><path d="M574.9874,116.3133h42.9659v-59.1503l69.2661-37.9206v97.0709h47.5249v62.1845h-47.5249v80.385c0,9.7765.5066,17.6939,1.5197,23.7574,1.003,6.0685,3.1102,10.7035,6.3117,13.9049,3.2014,3.2065,7.9225,5.3087,14.1632,6.3218,6.2306,1.008,14.7407,1.5146,25.5303,1.5146v64.7122h-10.1108c-20.2216,0-37.0797-1.8489-50.5642-5.562-13.4845-3.7029-24.4361-9.8575-32.8551-18.4537-8.4291-8.5911-14.4064-19.8822-17.9523-33.8732-3.5357-13.9809-5.3087-31.2544-5.3087-51.8204v-80.8865h-42.9659v-62.1845ZM146.1002,374.1491c-16.8581,0-31.8521-2.9532-44.9921-8.8495-13.14-5.8912-23.7574-13.7276-31.8521-23.5041v27.2982H0V.0339h69.256v144.0841c8.0947-9.7714,18.4588-17.6939,31.0923-23.7624,12.6436-6.0634,27.5565-9.0977,44.7489-9.0977,14.1531,0,28.5595,2.6138,43.2192,7.8364,14.6597,5.2276,27.8098,13.3173,39.4403,24.2639,11.6203,10.9568,21.1435,24.6945,28.5595,41.2031,7.4058,16.5187,11.1239,35.8944,11.1239,58.1422s-3.789,41.6286-11.3772,58.1372c-7.578,16.5187-17.2735,30.1703-29.066,40.9549-11.8027,10.7896-24.8617,18.8793-39.187,24.2639-14.3253,5.3897-28.2252,8.0897-41.7096,8.0897ZM131.9471,310.4499c9.432,0,18.2765-1.7729,26.5434-5.3087,8.2568-3.5408,15.4195-8.3429,21.488-14.4115,6.0685-6.0634,10.8706-13.221,14.4064-21.4829,3.5357-8.2568,5.3087-17.2684,5.3087-27.05,0-9.7714-1.7729-18.783-5.3087-27.0449-3.5357-8.2568-8.3379-15.4246-14.4064-21.488-6.0685-6.0685-13.2312-10.7845-21.488-14.1582-8.267-3.3635-17.1114-5.0554-26.5434-5.0554-9.4422,0-18.1245,1.7729-26.0369,5.3087-7.9225,3.5408-14.7508,8.3429-20.4749,14.4115-5.7342,6.0634-10.202,13.2312-13.3933,21.4829-3.2115,8.2619-4.8021,17.1114-4.8021,26.5434,0,9.4422,1.5906,18.2866,4.8021,26.5434,3.1913,8.2619,7.6591,15.5056,13.3933,21.7362,5.7241,6.2407,12.5524,11.1239,20.4749,14.6647,7.9124,3.5357,16.5947,5.3087,26.0369,5.3087ZM770.9302,116.3133h69.256v252.7804h-69.256V116.3133ZM846.8326,23.8277L805.56,0l-41.2761,23.8277v47.6793l41.2761,23.8401,41.2726-23.8401V23.8277ZM422.5407,89.2658l-128.3606,74.1036v148.276l128.3606,74.1391,128.3556-74.1391v-148.276l-128.3556-74.1036ZM491.1028,277.2789l-68.5646,39.5859-68.5642-39.5859v-79.1714l68.5642-39.5855,68.5646,39.5855v79.1714Z" style="fill:#fff;"/></g></g></g></g></svg>