<?xml version="1.0" encoding="UTF-8"?><svg id="Layer_2" xmlns="http://www.w3.org/2000/svg" viewBox="0 0 219.3 100"><defs><style>.cls-1{fill:#3fe7f9;}.cls-2{fill:#0740de;}.cls-3{fill:#39d6f6;}.cls-4{fill:#1261e3;}.cls-5{fill:#2eb5f1;}.cls-6{fill:#2393eb;}.cls-7{fill:#012fdb;}.cls-8{fill:#0c50e0;}.cls-9{fill:#1872e6;}.cls-10{fill:#1d83e9;}.cls-11{fill:#28a4ee;}.cls-12{fill:#fefefe;}.cls-13{fill:#34c6f4;}</style></defs><g id="Layer_1-2"><path class="cls-12" d="M60.6,38.53c-5.96-6.41-13.59-9.61-22.91-9.61-6.03,0-11.49,1.41-16.38,4.24-1.09.63-2.12,1.33-3.1,2.08V0H0v95.55h18.2v-4.64c1.08.79,2.23,1.51,3.45,2.15,5.12,2.7,10.51,4.05,16.15,4.05,9.12,0,16.69-3.25,22.71-9.74,6.01-6.49,9.02-14.67,9.02-24.54s-2.98-17.89-8.93-24.3ZM34.7,80.27c-11.57,0-15.42-7.51-16.5-13.4v-8.14c1.41-7.54,6.86-13.32,16.5-13.32,13.05,0,16.81,11.05,16.81,17.32,0,14.29-12.05,17.54-16.81,17.54Z"/><path class="cls-12" d="M178.51,70.77c0-.98-.36-23.97-.36-23.97h12.05v-16.45h-12.05V4.97l-18.38,10.37v15.01h-10.93v16.45h10.93v24.12c0,29.58,27.51,25.12,30.81,25.04v-17.2c-3.51.88-12.08.47-12.08-7.99Z"/><rect class="cls-12" x="199.46" y="30.32" width="18.23" height="65.46"/><polygon class="cls-12" points="208.57 .44 197.85 6.64 197.85 19.02 208.57 25.22 219.3 19.02 219.3 6.64 208.57 .44"/><polygon class="cls-12" points="109.18 22.58 75.66 41.94 75.66 80.65 109.18 100 142.71 80.65 142.71 41.94 109.18 22.58"/><polygon class="cls-1" points="109.65 81.6 127 71.04 126.54 50.74 108.72 40.99 91.37 51.54 91.83 71.85 109.65 81.6"/><polygon class="cls-3" points="109.56 80.01 125.56 70.28 125.13 51.56 108.7 42.57 92.71 52.3 93.13 71.02 109.56 80.01"/><polygon class="cls-13" points="109.47 78.43 124.12 69.52 123.73 52.38 108.69 44.15 94.04 53.06 94.44 70.2 109.47 78.43"/><polygon class="cls-5" points="109.39 76.85 122.68 68.76 122.32 53.21 108.67 45.74 95.38 53.82 95.74 69.38 109.39 76.85"/><polygon class="cls-11" points="109.3 75.26 121.24 68 120.92 54.03 108.66 47.32 96.72 54.58 97.04 68.55 109.3 75.26"/><polygon class="cls-6" points="109.21 73.68 119.79 67.24 119.51 54.85 108.64 48.9 98.06 55.34 98.34 67.73 109.21 73.68"/><polygon class="cls-10" points="109.12 72.1 118.35 66.48 118.11 55.68 108.63 50.49 99.39 56.1 99.64 66.91 109.12 72.1"/><polygon class="cls-9" points="109.03 70.51 116.91 65.72 116.7 56.5 108.61 52.07 100.73 56.86 100.94 66.08 109.03 70.51"/><polygon class="cls-4" points="108.94 68.93 115.47 64.96 115.3 57.32 108.59 53.65 102.07 57.62 102.24 65.26 108.94 68.93"/><polygon class="cls-8" points="108.86 67.34 114.03 64.2 113.89 58.14 108.58 55.24 103.41 58.38 103.55 64.44 108.86 67.34"/><polygon class="cls-2" points="108.77 65.76 112.59 63.44 112.49 58.97 108.56 56.82 104.74 59.15 104.85 63.61 108.77 65.76"/><polygon class="cls-7" points="108.68 64.18 111.15 62.68 111.08 59.79 108.55 58.4 106.08 59.91 106.15 62.79 108.68 64.18"/></g></svg>